<svg xmlns="http://www.w3.org/2000/svg" viewBox="0 0 100 100">
  <defs>
    <radialGradient id="glow" cx="50%" cy="50%" r="50%">
      <stop offset="0%" style="stop-color:#38BDF8;stop-opacity:0.8"/>
      <stop offset="50%" style="stop-color:#8B5CF6;stop-opacity:0.4"/>
      <stop offset="100%" style="stop-color:#0A0A0F;stop-opacity:0"/>
    </radialGradient>
  </defs>
  <circle cx="50" cy="50" r="45" fill="url(#glow)"/>
  <g fill="none" stroke="#38BDF8" stroke-width="1.5" opacity="0.9">
    <circle cx="50" cy="35" r="5"/>
    <circle cx="35" cy="50" r="4"/>
    <circle cx="65" cy="50" r="4"/>
    <circle cx="42" cy="65" r="3.5"/>
    <circle cx="58" cy="65" r="3.5"/>
    <circle cx="30" cy="35" r="3"/>
    <circle cx="70" cy="35" r="3"/>
    <circle cx="50" cy="50" r="6" stroke="#00CC88"/>
    <line x1="50" y1="35" x2="50" y2="44" stroke-opacity="0.6"/>
    <line x1="50" y1="56" x2="42" y2="62" stroke-opacity="0.6"/>
    <line x1="50" y1="56" x2="58" y2="62" stroke-opacity="0.6"/>
    <line x1="44" y1="50" x2="39" y2="50" stroke-opacity="0.6"/>
    <line x1="56" y1="50" x2="61" y2="50" stroke-opacity="0.6"/>
    <line x1="35" y1="50" x2="30" y2="38" stroke-opacity="0.4"/>
    <line x1="65" y1="50" x2="70" y2="38" stroke-opacity="0.4"/>
    <line x1="50" y1="35" x2="33" y2="35" stroke-opacity="0.4"/>
    <line x1="50" y1="35" x2="67" y2="35" stroke-opacity="0.4"/>
  </g>
</svg>
